# Created by Kenney (www.kenney.nl)

mtllib wood_ground.mtl

g mergedBlocks

v -0.5 -0.02000001 -0.1708961
v 1.6 -0.02000001 -1.39026
v -0.5 0.2 -0.1708961
v 1.6 0.2 -1.39026
v 3.7 0.2 -0.1708961
v 3.7 -0.02000001 -0.1708961
v 3.7 0.2 2.267832
v 3.7 -0.02000001 2.267832
v 1.6 0.2 3.487196
v -0.5 0.2 2.267832
v 1.6 -0.02000001 3.487196
v -0.5 -0.02000001 2.267832

vn -0.5021383 0 -0.8647873
vn 1 0 0
vn 0 1 0
vn 0.5021383 0 -0.8647873
vn -0.5021383 0 0.8647873
vn 0.5021383 0 0.8647873
vn 0 -1 0
vn -1 0 0

vt 0.5 -0.02000001
vt -1.6 -0.02000001
vt 0.5 0.2
vt -1.6 0.2
vt 0.170896 0.2
vt 0.170896 -0.02000001
vt -2.267832 0.2
vt -2.267832 -0.02000001
vt -3.7 2.267832
vt -1.6 3.487196
vt -3.7 -0.170896
vt -1.6 -1.39026
vt 0.5 2.267832
vt 0.5 -0.170896
vt -3.7 -0.02000001
vt -3.7 0.2
vt 1.6 -0.02000001
vt -0.5 -0.02000001
vt 1.6 0.2
vt -0.5 0.2
vt 3.7 -0.02000001
vt 3.7 0.2
vt -3.7 -2.267832
vt -3.7 0.170896
vt -1.6 -3.487196
vt -1.6 1.39026
vt 0.5 -2.267832
vt 0.5 0.170896
vt -0.170896 -0.02000001
vt -0.170896 0.2
vt 2.267832 -0.02000001
vt 2.267832 0.2

usemtl stone

f 3/3/1 2/2/1 1/1/1
f 2/2/1 3/3/1 4/4/1
f 7/7/2 6/6/2 5/5/2
f 6/6/2 7/7/2 8/8/2
f 5/11/3 9/10/3 7/9/3
f 9/10/3 5/11/3 4/12/3
f 9/10/3 4/12/3 10/13/3
f 10/13/3 4/12/3 3/14/3
f 4/4/4 6/15/4 2/2/4
f 6/15/4 4/4/4 5/16/4
f 9/19/5 12/18/5 11/17/5
f 12/18/5 9/19/5 10/20/5
f 7/22/6 11/17/6 8/21/6
f 11/17/6 7/22/6 9/19/6
f 11/25/7 6/24/7 8/23/7
f 6/24/7 11/25/7 2/26/7
f 2/26/7 11/25/7 12/27/7
f 2/26/7 12/27/7 1/28/7
f 12/31/8 3/30/8 1/29/8
f 3/30/8 12/31/8 10/32/8

